PathFileType	4	(X/Y/Z)	traj.trc
DataRate	CameraRate	NumFrames	NumMarkers	Units	OrigDataRate	OrigDataStartFrame	OrigNumFrames
30.00	30.00	154	1	mm	30.00	1	200
Frame#	Time	wrist		
		X1	Y1	Z1

0	0.0	460.4697823524475	477.9558479785919	-341.8053090572357
1	0.020100502512562814	460.4697823524475	477.9558479785919	-341.8053090572357
2	0.04020100502512563	460.4696565407354	477.95663286188216	-341.80552981507805
3	0.06030150753768844	460.4690325526398	477.96052564595936	-341.80662470730493
4	0.08040201005025126	460.46742483017465	477.9705555110436	-341.80944572719704
5	0.10050251256281408	460.4643628341992	477.9896579414617	-341.814818514941
6	0.12060301507537688	460.4593908903786	478.020675686631	-341.82354262791733
7	0.1407035175879397	460.4520680351444	478.0663597220426	-341.83639181098874
8	0.16080402010050251	460.4419678616553	478.1293702102447	-341.8541142667884
9	0.18090452261306533	460.4286783657575	478.21227746182655	-341.8774329260077
10	0.20100502512562815	460.4118017919454	478.31756289640157	-341.90704571768475
11	0.22110552763819097	460.3909544793218	478.4476200035914	-341.9436258394925
12	0.24120603015075376	460.3657667075594	478.60475530400873	-341.98782202802664
13	0.2613065326633166	460.33588254286	478.7911893102414	-342.0402588290939
14	0.2814070351758794	460.30095968391635	479.00905748783555	-342.10153686800027
15	0.30150753768844224	460.26066930787175	479.2604112162794	-342.172233119839
16	0.32160804020100503	460.21469591628124	479.54721874998665	-342.25290117977886
17	0.3417085427135678	460.1627371810718	479.8713661792799	-342.3440715333522
18	0.36180904522613067	460.10450379050314	480.2346583913744	-342.446251826743
19	0.38190954773869346	460.0397192951281	480.6388200313614	-342.5599271370755
20	0.4020100502512563	459.9681199537533	481.0854964631916	-342.6855602427015
21	0.4221105527638191	459.8894545793995	481.57625473065906	-342.82359189348955
22	0.44221105527638194	459.8034843852626	482.1125845183842	-342.974441081112
23	0.4623115577889447	459.70998283067365	482.69589911279775	-343.138505309334
24	0.4824120603015075	459.60873546706	483.3275363631239	-343.3161608643012
25	0.5025125628140703	459.4995397839052	484.00875964236417	-343.5077630848282
26	0.5226130653266332	459.3822050547103	484.7407588082807	-343.7136466326863
27	0.542713567839196	459.25655218295367	485.5246511643798	-343.9341257628919
28	0.5628140703517588	459.12241354805207	486.3614824208957	-344.1694945939947
29	0.5829145728643216	458.979632851321	487.2522276557737	-344.4200273783657
30	0.6030150753768845	458.82806496193547	488.1977922756538	-344.68597877248544
31	0.6231155778894473	458.6675757628902	489.1990129768546	-344.967584107232
32	0.6432160804020101	458.4980419969604	490.2566587063562	-345.26505965816943
33	0.6633165829145728	458.31935111266256	491.37143162278414	-345.57860291583546
34	0.6834170854271356	458.1314011102144	492.5439680573929	-345.9083928560301
35	0.7035175879396985	457.93410038749613	493.77483947504925	-346.2545902101034
36	0.7236180904522613	457.72736758601053	495.0645534352159	-346.617337735244
37	0.7437185929648241	457.5111314368435	496.4135545529349	-346.99676048476687
38	0.7638190954773869	457.2853306066251	497.8222254598113	-347.3929660784017
39	0.7839195979899498	457.04991354348954	499.2908877649966	-347.806044972581
40	0.8040201005025126	456.80483832303617	500.81980301617233	-348.23607073072816
41	0.8241206030150754	456.55007249428957	502.40917366053327	-348.68310029354575
42	0.8442211055276382	456.28559292566086	504.05914400577154	-349.14717424930353
43	0.864321608040201	456.0113856509073	505.7698011810596	-349.62831710412655
44	0.8844221105527639	455.7274457150938	507.54117609803416	-350.1265375522836
45	0.9045226130653267	455.4337770205526	509.3732444117791	-350.64182874647486
46	0.9246231155778895	455.13039217284467	511.26592748180985	-351.17416856812065
47	0.9447236180904522	454.8173123267196	513.2190933330563	-351.72351989764894
48	0.964824120603015	454.4945670320766	515.2325576168465	-352.289830884784
49	0.9849246231155779	454.16219407992463	517.3060845718899	-352.87303521883416
50	1.0050251256281406	453.8202393483435	519.4393879852614	-353.4730523989805
51	1.0251256281407035	453.468756648444	521.6321321533848	-354.0897880045642
52	1.0452261306532664	453.1078075703286	523.8839328430155	-354.7231339653755
53	1.065326633165829	452.737461329052	526.1943582522252	-355.37296883194114
54	1.085427135678392	452.3577946105819	528.5629299713847	-356.03915804581305
55	1.105527638190955	451.96889141775915	530.9891239441475	-356.7215542098563
56	1.1256281407035176	451.5708429162586	533.4723714284335	-357.41999735853705
57	1.1457286432160805	451.1637472805496	536.0120599574124	-358.134315228211
58	1.1658291457286432	450.7477095398566	538.607534300487	-358.86432352741133
59	1.185929648241206	450.32284142411953	541.2580974242775	-359.6098262071371
60	1.206030150753769	449.88926120995467	543.9630114536039	-360.37061573114084
61	1.2261306532663316	449.4470935666148	546.7214986324705	-361.1464733462174
62	1.2462311557788945	448.9964694019502	549.5327422850489	-361.9371693524917
63	1.2663316582914572	448.537525708369	552.3958877766615	-362.74246337370687
64	1.2864321608040201	448.0704054087976	555.3100434747655	-363.56210462751244
65	1.306532663316583	447.5952572026415	558.2742817099358	-364.3958321957526
66	1.3266331658291457	447.11223541174564	561.287639736849	-365.2433752947542
67	1.3467336683417086	446.6214998263552	564.3491206952665	-366.10445354561483
68	1.3668341708542713	446.1232155510758	567.4576945710182	-366.9787772444914
69	1.3869346733668342	445.61755285083456	570.6122991569865	-367.86604763288767
70	1.407035175879397	445.10468699684003	573.8118410140892	-368.7659571679428
71	1.4271356783919598	444.58479811254347	577.0551964322628	-369.67818979271937
72	1.4472361809045227	444.05807101959874	580.3412123914471	-370.60242120649156
73	1.4673366834170853	443.5246950838234	583.6687075225675	-371.53831913503325
74	1.4874371859296482	442.9848640611588	587.0364730685194	-372.4855436009062
75	1.5075376884422111	442.43877594363113	590.4432738451511	-373.4437471937482
76	1.5276381909547738	441.8866328053115	593.887849202248	-374.41257534056126
77	1.5477386934673367	441.3286406482767	597.3689139845153	-375.39166657599947
78	1.5678391959798996	440.7650092485701	600.8851594925623	-376.3806528126577
79	1.5879396984924623	440.1959520021615	604.4352544438854	-377.3791596113591
80	1.6080402010050252	439.62168577090836	608.0178459338517	-378.38680645144376
81	1.6281407035175879	439.042430728516	611.631560396683	-379.4032070010566
82	1.6482412060301508	438.45841020649823	615.2750045664384	-380.42796938743555
83	1.6683417085427137	437.86985054013786	618.9467664379987	-381.4606964671998
84	1.6884422110552764	437.2769809144476	622.6454162280495	-382.50098609663775
85	1.7085427135678393	436.68003321013	626.3695073360649	-383.54843140199523
86	1.728643216080402	436.0792418495385	630.1175773052906	-384.60262104976385
87	1.7487437185929648	435.474843642638	633.888148783728	-385.6631395169689
88	1.7688442211055277	434.867077632965	637.6797304851174	-386.7295673614575
89	1.7889447236180904	434.25618494358866	641.4908181499217	-387.8014814921868
90	1.8090452261306533	433.64240862307093	645.3198955063094	-388.8784554395123
91	1.829145728643216	433.02599349142764	649.1654352311389	-389.96005962547576
92	1.849246231155779	432.4071859860882	653.0258999109415	-391.0458616340933
93	1.8693467336683418	431.78623400785733	656.8997430029051	-392.1354264816438
94	1.8894472361809045	431.16338676687445	660.7854097958576	-393.22831688695686
95	1.9095477386934674	430.53889462857506	664.6813383712506	-394.3240935417011
96	1.92964824120603	429.91300895965094	668.5859605641426	-395.42231538067193
97	1.949748743718593	429.2859819740108	672.4977029241832	-396.5225398520802
98	1.9698492462311559	428.65806657874083	676.4149876765955	-397.6243231878401
99	1.9899497487437185	428.0295162200652	680.3362336831608	-398.7272206738572
100	2.0100502512562812	427.40058472930673	684.2598574032013	-399.8307869203167
101	2.030150753768844	426.77152616884746	688.1842738545643	-400.9345761319718
102	2.050251256281407	426.14259467808904	692.1078975746049	-402.03814237843136
103	2.07035175879397	425.51404431941336	696.0291435811702	-403.14103986444843
104	2.090452261306533	424.88612892414335	699.9464283335825	-404.2428232002083
105	2.1105527638190953	424.2591019385032	703.8581706936229	-405.34304767161666
106	2.130653266331658	423.63321626957907	707.762792886515	-406.4412695105875
107	2.150753768844221	423.00872413127973	711.6587214619079	-407.53704616533173
108	2.170854271356784	422.38587689029686	715.5443882548605	-408.6299365706447
109	2.190954773869347	421.7649249120659	719.4182313468241	-409.71950141819525
110	2.21105527638191	421.1461174067266	723.2786960266267	-410.8053034268128
111	2.2311557788944723	420.5297022750832	727.1242357514562	-411.88690761277627
112	2.251256281407035	419.9159259545655	730.9533131078439	-412.96388156010175
113	2.271356783919598	419.3050332651892	734.7644007726482	-414.0357956908311
114	2.291457286432161	418.6972672555162	738.5559824740375	-415.1022235353197
115	2.311557788944724	418.0928690486156	742.326553952475	-416.1627420025247
116	2.3316582914572863	417.4920776880242	746.0746239217008	-417.2169316502933
117	2.351758793969849	416.89512998370657	749.798715029716	-418.26437695565085
118	2.371859296482412	416.30226035801627	753.497364819767	-419.30466658508874
119	2.391959798994975	415.71370069165596	757.1691266913272	-420.337393664853
120	2.412060301507538	415.1296801696382	760.8125708610827	-421.362156051232
121	2.4321608040201004	414.55042512724583	764.4262853239138	-422.3785566008448
122	2.4522613065326633	413.9761588959927	768.0088768138802	-423.3862034409295
123	2.472361809045226	413.4071016495841	771.5589717652032	-424.38471023963086
124	2.492462311557789	412.84347024987744	775.0752172732502	-425.373696476289
125	2.512562814070352	412.2854780928427	778.5562820555175	-426.3527877117272
126	2.5326633165829144	411.733334954523	782.0008574126144	-427.32161585854027
127	2.5527638190954773	411.1872468369953	785.4076581892461	-428.27981945138225
128	2.5728643216080402	410.6474158143307	788.775423735198	-429.22704391725523
129	2.592964824120603	410.1140398785554	792.1029188663184	-430.162941845797
130	2.613065326633166	409.58731278561066	795.3889348255027	-431.0871732595691
131	2.6331658291457285	409.0674239013141	798.6322902436764	-431.9994058843457
132	2.6532663316582914	408.5545580473197	801.831832100779	-432.89931541940086
133	2.6733668341708543	408.0488953470783	804.9864366867474	-433.7865858077971
134	2.693467336683417	407.550611071799	808.0950105624992	-434.6609095066737
135	2.71356783919598	407.0598754864085	811.1564915209166	-435.52198775753436
136	2.7336683417085426	406.5768536955127	814.1698495478297	-436.36953085653596
137	2.7537688442211055	406.10170548935656	817.134087783	-437.20325842477615
138	2.7738693467336684	405.6345851897852	820.0482434811039	-438.0228996785817
139	2.7939698492462313	405.1756414962039	822.9113889727166	-438.8281936997969
140	2.814070351758794	404.7250173315394	825.722632625295	-439.6188897060712
141	2.8341708542713566	404.2828496881996	828.4811198041616	-440.39474732114775
142	2.8542713567839195	403.84926947403466	831.1860338334881	-441.1555368451515
143	2.8743718592964824	403.42440135829753	833.8365969572785	-441.9010395248772
144	2.8944723618090453	403.0083636176046	836.4320713003532	-442.6310478240776
145	2.9145728643216082	402.60126798189555	838.9717598293321	-443.3453656937515
146	2.9346733668341707	402.203219480395	841.455007313618	-444.0438088424322
147	2.9547738693467336	401.81431628757224	843.8812012863808	-444.7262050064755
148	2.9748743718592965	401.43464956910213	846.2497730055403	-445.39239422034746
149	2.9949748743718594	401.0643033278256	848.5601984147501	-446.04222908691304
150	3.0150753768844223	400.70335424971023	850.8119991043808	-446.6755750477243
151	3.035175879396985	400.35187154981065	853.0047432725041	-447.29231065330805
152	3.0552763819095476	400.00991681822956	855.1380466858757	-447.8923278334543
153	3.0753768844221105	399.67754386607754	857.2115736409191	-448.4755321675046
